<svg xmlns="http://www.w3.org/2000/svg" width="24" height="24" viewBox="0 0 24 24">
  <rect width="24" height="24" fill="#4c80a8"/>
  <g fill="none" stroke="#76a8c8" stroke-width="1.25" stroke-linecap="round" stroke-linejoin="round" opacity=".86">
    <path d="M-2 3.5c2 0 2-1.5 4-1.5s2 1.5 4 1.5 2-1.5 4-1.5 2 1.5 4 1.5 2-1.5 4-1.5 2 1.5 4 1.5 2-1.5 4-1.5"/>
    <path d="M-2 9.5c2 0 2-1.5 4-1.5s2 1.5 4 1.5 2-1.5 4-1.5 2 1.5 4 1.5 2-1.5 4-1.5 2 1.5 4 1.5 2-1.5 4-1.5"/>
    <path d="M-2 15.5c2 0 2-1.5 4-1.5s2 1.5 4 1.5 2-1.5 4-1.5 2 1.5 4 1.5 2-1.5 4-1.5 2 1.5 4 1.5 2-1.5 4-1.5"/>
    <path d="M-2 21.5c2 0 2-1.5 4-1.5s2 1.5 4 1.5 2-1.5 4-1.5 2 1.5 4 1.5 2-1.5 4-1.5 2 1.5 4 1.5 2-1.5 4-1.5"/>
  </g>
  <g fill="#76a8c8" opacity=".38">
    <rect x="4" y="5" width="2" height="1"/>
    <rect x="16" y="5" width="2" height="1"/>
    <rect x="10" y="11" width="2" height="1"/>
    <rect x="22" y="11" width="2" height="1"/>
    <rect x="-2" y="11" width="2" height="1"/>
    <rect x="4" y="17" width="2" height="1"/>
    <rect x="16" y="17" width="2" height="1"/>
    <rect x="10" y="23" width="2" height="1"/>
  </g>
</svg>
